# Blender 4.4.1
# www.blender.org
mtllib enemy.mtl
o 立方体
v -0.552998 -0.552998 0.552998
v -0.552999 0.552999 0.552998
v -0.552998 -0.552998 -0.552998
v -0.552999 0.552999 -0.552998
v 0.552999 -0.552998 0.552998
v 0.552998 0.552999 0.552998
v 0.552999 -0.552998 -0.552998
v 0.552998 0.552999 -0.552998
v -0.561524 -0.507278 0.561524
v -0.652874 -0.033849 0.652874
v -0.652874 0.033849 0.652874
v -0.561524 0.507277 0.561524
v -0.561524 0.507277 -0.561524
v -0.652874 0.033849 -0.652874
v -0.652874 -0.033849 -0.652874
v -0.561524 -0.507278 -0.561524
v 0.561524 0.507277 -0.561524
v 0.652874 0.033849 -0.652874
v 0.652874 -0.033849 -0.652874
v 0.561524 -0.507278 -0.561524
v 0.561524 0.507277 0.561524
v 0.652874 0.033849 0.652874
v 0.652874 -0.033849 0.652874
v 0.561524 -0.507278 0.561524
v 0.507277 -0.561525 -0.561524
v 0.033849 -0.652874 -0.652874
v -0.033849 -0.652874 -0.652874
v -0.507278 -0.561525 -0.561524
v -0.507277 0.561524 -0.561524
v -0.033849 0.652875 -0.652874
v 0.033849 0.652875 -0.652874
v 0.507278 0.561524 -0.561524
v -0.507278 -0.561525 0.561524
v -0.033849 -0.652874 0.652874
v 0.033849 -0.652874 0.652874
v 0.507277 -0.561525 0.561524
v 0.507278 0.561524 0.561524
v 0.033849 0.652875 0.652875
v -0.033849 0.652875 0.652874
v -0.507277 0.561524 0.561524
v 0.366974 -0.366973 0.840616
v 0.205011 -0.451852 0.724189
v -0.205011 -0.451852 0.724189
v -0.366974 -0.366973 0.840616
v 0.451852 -0.205011 0.724189
v 0.117275 -0.117275 0.857403
v -0.117275 -0.117275 0.857403
v -0.451852 -0.205011 0.724189
v 0.451852 0.205011 0.724189
v 0.117275 0.117275 0.857403
v -0.117275 0.117275 0.857403
v -0.451852 0.205011 0.724189
v 0.366974 0.366974 0.840616
v 0.205011 0.451852 0.724189
v -0.205011 0.451852 0.724189
v -0.366974 0.366974 0.840616
v -0.514442 -0.452374 -0.840616
v -0.205011 -0.451852 -0.724189
v 0.205011 -0.451852 -0.724189
v 0.514442 -0.452374 -0.840616
v -0.451852 -0.205011 -0.724189
v -0.232029 -0.075842 -1.393696
v 0.232029 -0.075842 -1.393696
v 0.451852 -0.205011 -0.724189
v -0.451852 0.205011 -0.724189
v -0.232029 0.075842 -1.393696
v 0.232029 0.075842 -1.393696
v 0.451852 0.205011 -0.724189
v -0.514442 0.452375 -0.840616
v -0.205011 0.451852 -0.724189
v 0.205011 0.451852 -0.724189
v 0.514442 0.452375 -0.840616
v -0.561525 -0.561524 -0.507277
v -0.652874 -0.652874 -0.033849
v -0.652874 -0.652874 0.033849
v -0.561525 -0.561524 0.507277
v -0.561524 0.561524 0.507277
v -0.652875 0.652875 0.033849
v -0.652875 0.652874 -0.033849
v -0.561524 0.561524 -0.507277
v 0.561524 -0.561525 0.507277
v 0.652874 -0.652874 0.033849
v 0.652874 -0.652874 -0.033849
v 0.561524 -0.561525 -0.507277
v 0.561525 0.561524 -0.507277
v 0.652874 0.652874 -0.033849
v 0.652874 0.652875 0.033849
v 0.561525 0.561524 0.507278
v 0.840616 -0.366973 -0.366974
v 0.724189 -0.451852 -0.205011
v 0.724189 -0.451852 0.205011
v 0.840616 -0.366973 0.366974
v 0.724189 -0.205011 -0.451852
v 1.603998 -0.296815 -0.233943
v 2.032610 -0.296815 0.233943
v 1.133782 -0.205011 0.451852
v 0.724189 0.205011 -0.451852
v 1.603998 -0.216534 -0.233943
v 2.032610 0.041502 0.233943
v 1.133782 0.205011 0.451852
v 0.840616 0.366974 -0.366974
v 0.724189 0.245248 -0.205011
v 0.724189 0.451852 0.205011
v 0.840616 0.366974 0.366974
v -0.840616 -0.366974 0.366974
v -0.724189 -0.451852 0.205011
v -0.724189 -0.451852 -0.205011
v -0.840616 -0.366974 -0.366974
v -1.133782 -0.205011 0.451852
v -2.032610 -0.296815 0.233943
v -1.603998 -0.296815 -0.233943
v -0.724189 -0.205011 -0.451852
v -1.133782 0.205011 0.451852
v -2.032610 0.041502 0.233943
v -1.603998 -0.216534 -0.233943
v -0.724189 0.205011 -0.451852
v -0.840616 0.366974 0.366974
v -0.724189 0.451852 0.205011
v -0.724189 0.245248 -0.205011
v -0.840616 0.366974 -0.366974
v 0.366973 0.840617 -0.366974
v 0.451852 0.724189 -0.205011
v 0.451852 0.724189 0.205011
v 1.232693 1.119270 0.689685
v 0.205011 0.724189 -0.451852
v 0.117275 0.857403 -0.117275
v 0.117275 0.857403 0.117275
v 0.205011 0.724189 0.451852
v -0.205011 0.724189 -0.451852
v -0.117275 0.857403 -0.117275
v -0.117275 0.857403 0.117275
v -0.205011 0.724189 0.451852
v -0.366974 0.840617 -0.366974
v -0.451852 0.724189 -0.205011
v -0.451852 0.724189 0.205011
v -1.232696 1.119270 0.689685
v -0.366973 -0.840616 -0.366974
v -0.451852 -0.724189 -0.205011
v -0.451852 -0.724189 0.205011
v -1.232693 -1.119269 0.689685
v -0.205011 -0.724189 -0.451852
v -0.117275 -0.857403 -0.117275
v -0.117275 -0.857403 0.117275
v -0.205011 -0.724189 0.451852
v 0.205011 -0.724189 -0.451852
v 0.117275 -0.857403 -0.117275
v 0.117275 -0.857403 0.117275
v 0.205011 -0.724189 0.451852
v 0.366974 -0.840616 -0.366974
v 0.451852 -0.724189 -0.205011
v 0.451852 -0.724189 0.205011
v 1.232696 -1.119269 0.689685
vn -0.6469 0.5392 -0.5392
vn 0.6846 0.6846 -0.2502
vn 0.6469 0.5392 0.5392
vn -0.5392 0.5392 0.6469
vn 0.4799 0.7344 0.4799
vn -0.4799 -0.7344 0.4799
vn -0.2181 -0.2181 0.9513
vn -0.8170 -0.0138 0.5765
vn -0.3343 -0.0000 0.9425
vn -0.5099 0.2568 0.8210
vn 0.9513 -0.2181 0.2181
vn 0.4732 -0.8798 0.0444
vn 0.3857 -0.0000 0.9226
vn 0.3019 0.2365 0.9236
vn 0.2181 -0.2181 -0.9513
vn 0.9516 0.2895 -0.1036
vn 0.3343 -0.0000 -0.9425
vn 0.5099 0.2568 -0.8210
vn -0.9513 -0.2181 -0.2181
vn -0.5765 -0.0138 -0.8170
vn -0.9425 -0.0000 -0.3343
vn -0.8210 0.2568 -0.5099
vn -0.5099 0.2568 -0.8210
vn -0.6635 0.6635 -0.3458
vn -0.0000 0.8719 -0.4897
vn 0.6635 0.6635 -0.3458
vn -0.3343 -0.0000 -0.9425
vn -0.9501 -0.0000 -0.3120
vn -0.0000 -0.0000 -1.0000
vn 0.9501 -0.0000 -0.3120
vn -0.9516 0.2895 -0.1036
vn 0.3317 0.3317 -0.8831
vn -0.0000 -0.8719 -0.4897
vn -0.3317 0.3317 -0.8831
vn -0.2181 -0.2181 -0.9513
vn -0.2568 -0.5099 -0.8210
vn -0.0000 -0.3343 -0.9425
vn 0.2568 -0.5099 -0.8210
vn 0.5099 0.2568 0.8210
vn 0.2881 0.2881 0.9132
vn -0.0000 0.3699 0.9291
vn -0.2881 0.2881 0.9133
vn 0.3343 -0.0000 0.9425
vn 0.3699 -0.0000 0.9291
vn -0.0000 -0.0000 1.0000
vn -0.3699 -0.0000 0.9291
vn 0.8170 -0.0138 0.5765
vn -0.6404 0.6404 0.4240
vn -0.0000 -0.3699 0.9291
vn 0.6404 0.6404 0.4240
vn 0.2181 -0.2181 0.9513
vn 0.2568 -0.5099 0.8210
vn -0.0000 -0.3343 0.9425
vn -0.2568 -0.5099 0.8210
vn 0.2180 0.9513 0.2180
vn -0.2726 0.1357 0.9525
vn -0.0000 0.9425 0.3343
vn -0.2568 0.8210 0.5099
vn -0.2181 -0.9513 0.2181
vn 0.2726 -0.1357 0.9525
vn -0.0000 -0.9425 0.3343
vn 0.2568 -0.8210 0.5099
vn 0.5392 0.5392 0.6469
vn 0.0138 0.8170 0.5765
vn -0.0000 0.3343 0.9425
vn -0.0138 0.8170 0.5765
vn -0.6846 0.6846 -0.2502
vn 0.1384 0.9211 -0.3638
vn -0.0000 0.3343 -0.9425
vn -0.1384 0.9211 -0.3638
vn 0.2568 -0.8210 -0.5099
vn 0.2881 -0.9133 -0.2881
vn 0.3699 -0.9291 -0.0000
vn 0.2881 -0.9133 0.2881
vn -0.0000 -0.9425 -0.3343
vn -0.0000 -0.9291 -0.3699
vn -0.0000 -1.0000 -0.0000
vn -0.0000 -0.9291 0.3699
vn -0.0138 -0.5765 -0.8170
vn 0.6404 -0.4240 0.6404
vn -0.3699 -0.9291 -0.0000
vn 0.2856 -0.9148 -0.2856
vn -0.2181 -0.9513 -0.2181
vn -0.5099 -0.8210 -0.2568
vn -0.3343 -0.9425 -0.0000
vn -0.5099 -0.8210 0.2568
vn -0.2568 0.8210 -0.5099
vn -0.2881 0.9132 -0.2881
vn -0.3699 0.9291 -0.0000
vn -0.2881 0.9132 0.2881
vn -0.0000 0.9425 -0.3343
vn -0.0000 0.9291 -0.3699
vn -0.0000 1.0000 -0.0000
vn -0.0000 0.9291 0.3699
vn 0.0138 0.5765 -0.8170
vn -0.6404 0.4240 0.6404
vn 0.3699 0.9291 -0.0000
vn -0.2856 0.9148 -0.2856
vn 0.2180 0.9513 -0.2180
vn 0.5099 0.8210 -0.2568
vn 0.3343 0.9425 -0.0000
vn 0.5099 0.8210 0.2568
vn -0.3019 0.2365 0.9236
vn -0.2615 0.8640 0.4302
vn -0.2449 0.7365 -0.6305
vn -0.4563 0.8783 -0.1432
vn -0.3857 -0.0000 0.9226
vn -0.2356 -0.0000 0.9718
vn -0.7374 -0.0000 -0.6755
vn -0.2404 -0.0000 -0.9707
vn -0.4732 -0.8798 0.0444
vn -0.4470 -0.8833 0.1416
vn -0.1735 -0.9848 -0.0000
vn -0.4240 0.6404 0.6404
vn -0.9513 -0.2181 0.2181
vn -0.8210 -0.5099 0.2568
vn -0.9425 -0.3343 -0.0000
vn -0.8210 -0.5099 -0.2568
vn 0.8210 0.2568 -0.5099
vn 0.4563 0.8783 -0.1432
vn 0.3282 0.6672 -0.6686
vn 0.2615 0.8640 0.4302
vn 0.9425 -0.0000 -0.3343
vn 0.2404 -0.0000 -0.9707
vn 0.7374 -0.0000 -0.6755
vn 0.2356 -0.0000 0.9718
vn 0.5765 -0.0138 -0.8170
vn 0.4240 0.6404 0.6404
vn 0.1177 -0.9931 -0.0000
vn 0.4470 -0.8833 0.1416
vn 0.9513 -0.2180 -0.2180
vn 0.8210 -0.5099 -0.2568
vn 0.9425 -0.3343 -0.0000
vn 0.8210 -0.5099 0.2568
vn -0.5392 0.6469 -0.5392
vn -0.8170 0.5764 -0.0138
vn -0.3343 0.9425 -0.0000
vn -0.6215 -0.5732 -0.5340
vn 0.5392 -0.6469 -0.5392
vn 0.8170 -0.5765 -0.0138
vn 0.3343 -0.9425 -0.0000
vn 0.6215 0.5732 -0.5340
vn 0.6469 0.5392 -0.5392
vn 0.1701 0.7252 0.6673
vn 0.9705 0.2154 -0.1085
vn 0.5765 0.8170 0.0138
vn -0.6469 0.5392 0.5392
vn -0.5765 0.8170 0.0138
vn -0.9705 0.2154 -0.1085
vn -0.1701 0.7252 0.6673
vn -0.9513 0.2180 -0.2180
vn 0.2180 0.2180 -0.9513
vn 0.9513 0.2181 0.2181
vn -0.2180 0.2180 0.9513
vn 0.2181 -0.9513 0.2181
vn -0.2180 0.9513 0.2180
vn -0.5392 -0.5392 0.6469
vn -0.5099 -0.2568 0.8210
vn -0.8170 0.0138 0.5765
vn 0.6469 -0.5392 0.5392
vn 0.3019 -0.2365 0.9236
vn 0.4732 0.8798 0.0444
vn 0.6846 -0.6846 -0.2502
vn 0.5099 -0.2568 -0.8210
vn 0.9516 -0.2895 -0.1036
vn -0.6469 -0.5392 -0.5392
vn -0.8210 -0.2568 -0.5099
vn -0.5765 0.0138 -0.8170
vn -0.9516 -0.2895 -0.1036
vn 0.3317 -0.3317 -0.8831
vn -0.3317 -0.3317 -0.8831
vn -0.5099 -0.2568 -0.8210
vn -0.6635 -0.6635 -0.3458
vn 0.6635 -0.6635 -0.3458
vn -0.6846 -0.6846 -0.2502
vn 0.1384 -0.9211 -0.3638
vn -0.1384 -0.9211 -0.3638
vn 0.8170 0.0138 0.5765
vn -0.6404 -0.6404 0.4240
vn 0.6404 -0.6404 0.4240
vn 0.5099 -0.2568 0.8210
vn 0.2881 -0.2881 0.9133
vn -0.2881 -0.2881 0.9133
vn 0.5392 -0.5392 0.6469
vn 0.0138 -0.8170 0.5765
vn -0.0138 -0.8170 0.5765
vn 0.4799 -0.7344 0.4799
vn 0.2568 0.8210 0.5099
vn 0.2726 0.1357 0.9525
vn -0.4799 0.7344 0.4799
vn -0.2568 -0.8210 0.5099
vn -0.2726 -0.1357 0.9525
vn 0.2181 0.2181 0.9513
vn 0.2568 0.5099 0.8210
vn -0.2568 0.5099 0.8210
vn -0.2180 0.2180 -0.9513
vn -0.2568 0.5099 -0.8210
vn 0.2568 0.5099 -0.8210
vn 0.0138 -0.5765 -0.8170
vn -0.6404 -0.4240 0.6404
vn -0.2856 -0.9148 -0.2856
vn -0.2568 -0.8210 -0.5099
vn -0.2881 -0.9133 -0.2881
vn -0.2881 -0.9133 0.2881
vn -0.5392 -0.6469 -0.5392
vn -0.8170 -0.5765 -0.0138
vn -0.6215 0.5732 -0.5340
vn -0.0138 0.5765 -0.8170
vn 0.6404 0.4240 0.6404
vn 0.2856 0.9148 -0.2856
vn 0.2568 0.8210 -0.5099
vn 0.2881 0.9132 -0.2881
vn 0.2881 0.9133 0.2881
vn 0.5392 0.6469 -0.5392
vn 0.8170 0.5765 -0.0138
vn 0.6215 -0.5732 -0.5340
vn -0.4732 0.8798 0.0444
vn -0.4470 0.8833 0.1416
vn -0.4133 0.8132 -0.4097
vn -0.7823 -0.6148 0.1002
vn -0.3019 -0.2365 0.9236
vn -0.0766 -0.7657 0.6386
vn -0.1193 -0.9868 -0.1093
vn -0.1008 -0.7035 -0.7035
vn -0.6469 -0.5392 0.5392
vn -0.5765 -0.8170 0.0138
vn -0.5765 -0.8170 -0.0138
vn 0.5765 0.0138 -0.8170
vn 0.7823 -0.6148 0.1002
vn 0.2785 0.8577 -0.4322
vn 0.4470 0.8833 0.1416
vn 0.8210 -0.2568 -0.5099
vn 0.1008 -0.7035 -0.7035
vn 0.1666 -0.9741 -0.1527
vn 0.0766 -0.7657 0.6386
vn 0.6469 -0.5392 -0.5392
vn 0.5765 -0.8170 -0.0138
vn 0.5765 -0.8170 0.0138
vn -0.2180 0.9513 -0.2180
vn -0.5099 0.8210 -0.2568
vn -0.5099 0.8210 0.2568
vn 0.2181 -0.9513 -0.2181
vn 0.5099 -0.8210 -0.2568
vn 0.5099 -0.8210 0.2568
vn 0.9513 0.2181 -0.2181
vn 0.9372 0.2611 -0.2312
vn 0.9425 0.3343 -0.0000
vn 0.8210 0.5099 0.2568
vn -0.9513 0.2180 0.2180
vn -0.8210 0.5099 0.2568
vn -0.9425 0.3343 -0.0000
vn -0.9372 0.2611 -0.2312
vt 0.625000 0.200000
vt 0.575000 0.250000
vt 0.575000 0.200000
vt 0.625000 0.450000
vt 0.575000 0.500000
vt 0.575000 0.450000
vt 0.625000 0.700000
vt 0.575000 0.750000
vt 0.575000 0.700000
vt 0.625000 0.950000
vt 0.575000 1.000000
vt 0.575000 0.950000
vt 0.375000 0.700000
vt 0.325000 0.750000
vt 0.325000 0.700000
vt 0.875000 0.700000
vt 0.825000 0.750000
vt 0.825000 0.700000
vt 0.375000 0.950000
vt 0.425000 1.000000
vt 0.375000 1.000000
vt 0.475000 0.950000
vt 0.425000 0.950000
vt 0.525000 0.950000
vt 0.475000 1.000000
vt 0.525000 1.000000
vt 0.425000 0.750000
vt 0.375000 0.750000
vt 0.475000 0.700000
vt 0.425000 0.700000
vt 0.525000 0.700000
vt 0.475000 0.750000
vt 0.525000 0.750000
vt 0.375000 0.450000
vt 0.425000 0.500000
vt 0.375000 0.500000
vt 0.475000 0.450000
vt 0.425000 0.450000
vt 0.525000 0.450000
vt 0.475000 0.500000
vt 0.525000 0.500000
vt 0.375000 0.200000
vt 0.425000 0.250000
vt 0.375000 0.250000
vt 0.475000 0.200000
vt 0.425000 0.200000
vt 0.525000 0.200000
vt 0.475000 0.250000
vt 0.525000 0.250000
vt 0.525000 0.300000
vt 0.575000 0.350000
vt 0.525000 0.350000
vt 0.525000 0.400000
vt 0.575000 0.400000
vt 0.475000 0.300000
vt 0.475000 0.350000
vt 0.475000 0.400000
vt 0.425000 0.300000
vt 0.425000 0.350000
vt 0.425000 0.400000
vt 0.375000 0.300000
vt 0.375000 0.350000
vt 0.375000 0.400000
vt 0.525000 0.800000
vt 0.575000 0.850000
vt 0.525000 0.850000
vt 0.575000 0.900000
vt 0.525000 0.900000
vt 0.475000 0.800000
vt 0.475000 0.850000
vt 0.475000 0.900000
vt 0.425000 0.800000
vt 0.425000 0.850000
vt 0.425000 0.900000
vt 0.375000 0.800000
vt 0.375000 0.850000
vt 0.375000 0.900000
vt 0.675000 0.750000
vt 0.625000 0.750000
vt 0.725000 0.700000
vt 0.675000 0.700000
vt 0.775000 0.700000
vt 0.725000 0.750000
vt 0.775000 0.750000
vt 0.125000 0.700000
vt 0.175000 0.750000
vt 0.125000 0.750000
vt 0.225000 0.700000
vt 0.175000 0.700000
vt 0.275000 0.700000
vt 0.225000 0.750000
vt 0.275000 0.750000
vt 0.625000 0.800000
vt 0.575000 0.800000
vt 0.625000 0.850000
vt 0.625000 0.300000
vt 0.575000 0.300000
vt 0.625000 0.400000
vt 0.325000 0.500000
vt 0.275000 0.550000
vt 0.275000 0.500000
vt 0.325000 0.600000
vt 0.275000 0.600000
vt 0.325000 0.650000
vt 0.275000 0.650000
vt 0.225000 0.500000
vt 0.225000 0.550000
vt 0.225000 0.600000
vt 0.225000 0.650000
vt 0.175000 0.500000
vt 0.175000 0.550000
vt 0.175000 0.600000
vt 0.175000 0.650000
vt 0.125000 0.550000
vt 0.125000 0.500000
vt 0.125000 0.600000
vt 0.125000 0.650000
vt 0.825000 0.500000
vt 0.775000 0.550000
vt 0.775000 0.500000
vt 0.825000 0.600000
vt 0.775000 0.600000
vt 0.825000 0.650000
vt 0.775000 0.650000
vt 0.725000 0.500000
vt 0.725000 0.550000
vt 0.725000 0.600000
vt 0.725000 0.650000
vt 0.675000 0.500000
vt 0.675000 0.550000
vt 0.675000 0.600000
vt 0.675000 0.650000
vt 0.625000 0.550000
vt 0.625000 0.500000
vt 0.625000 0.600000
vt 0.625000 0.650000
vt 0.575000 0.000000
vt 0.525000 0.050000
vt 0.525000 0.000000
vt 0.575000 0.100000
vt 0.525000 0.100000
vt 0.525000 0.150000
vt 0.575000 0.150000
vt 0.475000 0.000000
vt 0.475000 0.050000
vt 0.475000 0.100000
vt 0.475000 0.150000
vt 0.425000 0.000000
vt 0.425000 0.050000
vt 0.425000 0.100000
vt 0.425000 0.150000
vt 0.375000 0.050000
vt 0.375000 0.000000
vt 0.375000 0.100000
vt 0.375000 0.150000
vt 0.525000 0.550000
vt 0.575000 0.600000
vt 0.525000 0.600000
vt 0.525000 0.650000
vt 0.575000 0.650000
vt 0.475000 0.550000
vt 0.475000 0.600000
vt 0.475000 0.650000
vt 0.425000 0.550000
vt 0.425000 0.600000
vt 0.425000 0.650000
vt 0.375000 0.550000
vt 0.375000 0.600000
vt 0.375000 0.650000
vt 0.875000 0.550000
vt 0.825000 0.550000
vt 0.875000 0.650000
vt 0.325000 0.550000
vt 0.575000 0.550000
vt 0.625000 0.050000
vt 0.575000 0.050000
vt 0.625000 0.150000
vt 0.625000 0.250000
vt 0.625000 1.000000
vt 0.875000 0.750000
vt 0.625000 0.900000
vt 0.625000 0.350000
vt 0.875000 0.500000
vt 0.875000 0.600000
vt 0.625000 0.000000
vt 0.625000 0.100000
s 0
usemtl Material
f 80/1/1 13/2/1 120/3/1
f 32/4/2 17/5/2 72/6/2
f 88/7/3 21/8/3 104/9/3
f 40/10/4 12/11/4 56/12/4
f 81/13/5 36/14/5 152/15/5
f 77/16/6 40/17/6 136/18/6
f 33/19/7 9/20/7 1/21/7
f 48/22/8 9/20/8 44/23/8
f 52/24/9 10/25/9 48/22/9
f 52/24/10 12/11/10 11/26/10
f 81/13/11 24/27/11 5/28/11
f 96/29/12 24/27/12 92/30/12
f 100/31/13 23/32/13 96/29/13
f 100/31/14 21/8/14 22/33/14
f 25/34/15 20/35/15 7/36/15
f 64/37/16 20/35/16 60/38/16
f 68/39/17 19/40/17 64/37/17
f 68/39/18 17/5/18 18/41/18
f 73/42/19 16/43/19 3/44/19
f 112/45/20 16/43/20 108/46/20
f 116/47/21 15/48/21 112/45/21
f 116/47/22 13/2/22 14/49/22
f 13/2/23 65/50/23 14/49/23
f 65/50/24 70/51/24 66/52/24
f 70/51/25 67/53/25 66/52/25
f 71/54/26 68/39/26 67/53/26
f 15/48/27 65/50/27 61/55/27
f 65/50/28 62/56/28 61/55/28
f 62/56/29 67/53/29 63/57/29
f 63/57/30 68/39/30 64/37/30
f 16/43/31 61/55/31 57/58/31
f 61/55/32 58/59/32 57/58/32
f 62/56/33 59/60/33 58/59/33
f 59/60/34 64/37/34 60/38/34
f 16/43/35 28/61/35 3/44/35
f 28/61/36 58/59/36 27/62/36
f 27/62/37 59/60/37 26/63/37
f 59/60/38 25/34/38 26/63/38
f 21/8/39 49/64/39 22/33/39
f 49/64/40 54/65/40 50/66/40
f 50/66/41 55/67/41 51/68/41
f 55/67/42 52/24/42 51/68/42
f 23/32/43 49/64/43 45/69/43
f 49/64/44 46/70/44 45/69/44
f 50/66/45 47/71/45 46/70/45
f 47/71/46 52/24/46 48/22/46
f 24/27/47 45/69/47 41/72/47
f 45/69/48 42/73/48 41/72/48
f 42/73/49 47/71/49 43/74/49
f 43/74/50 48/22/50 44/23/50
f 24/27/51 36/75/51 5/28/51
f 36/75/52 42/73/52 35/76/52
f 42/73/53 34/77/53 35/76/53
f 43/74/54 33/19/54 34/77/54
f 88/7/55 37/78/55 6/79/55
f 128/80/56 37/78/56 124/81/56
f 132/82/57 38/83/57 128/80/57
f 132/82/58 40/17/58 39/84/58
f 76/85/59 33/86/59 1/87/59
f 144/88/60 33/86/60 140/89/60
f 148/90/61 34/91/61 144/88/61
f 148/90/62 36/14/62 35/92/62
f 21/8/63 37/93/63 53/94/63
f 37/93/64 54/65/64 53/94/64
f 38/95/65 55/67/65 54/65/65
f 55/67/66 40/10/66 56/12/66
f 13/2/67 29/96/67 69/97/67
f 29/96/68 70/51/68 69/97/68
f 70/51/69 31/98/69 71/54/69
f 71/54/70 32/4/70 72/6/70
f 25/99/71 145/100/71 26/101/71
f 145/100/72 150/102/72 146/103/72
f 146/103/73 151/104/73 147/105/73
f 151/104/74 148/90/74 147/105/74
f 27/106/75 145/100/75 141/107/75
f 145/100/76 142/108/76 141/107/76
f 146/103/77 143/109/77 142/108/77
f 143/109/78 148/90/78 144/88/78
f 28/110/79 141/107/79 137/111/79
f 141/107/80 138/112/80 137/111/80
f 142/108/81 139/113/81 138/112/81
f 139/113/82 144/88/82 140/89/82
f 28/110/83 73/114/83 3/115/83
f 73/114/84 138/112/84 74/116/84
f 74/116/85 139/113/85 75/117/85
f 139/113/86 76/85/86 75/117/86
f 29/118/87 129/119/87 30/120/87
f 129/119/88 134/121/88 130/122/88
f 130/122/89 135/123/89 131/124/89
f 135/123/90 132/82/90 131/124/90
f 31/125/91 129/119/91 125/126/91
f 129/119/92 126/127/92 125/126/92
f 130/122/93 127/128/93 126/127/93
f 127/128/94 132/82/94 128/80/94
f 32/129/95 125/126/95 121/130/95
f 125/126/96 122/131/96 121/130/96
f 122/131/97 127/128/97 123/132/97
f 123/132/98 128/80/98 124/81/98
f 32/129/99 85/133/99 8/134/99
f 85/133/100 122/131/100 86/135/100
f 122/131/101 87/136/101 86/135/101
f 123/132/102 88/7/102 87/136/102
f 12/137/103 113/138/103 11/139/103
f 113/138/104 118/140/104 114/141/104
f 118/140/105 115/142/105 114/141/105
f 119/143/106 116/47/106 115/142/106
f 10/144/107 113/138/107 109/145/107
f 113/138/108 110/146/108 109/145/108
f 114/141/109 111/147/109 110/146/109
f 111/147/110 116/47/110 112/45/110
f 9/148/111 109/145/111 105/149/111
f 109/145/112 106/150/112 105/149/112
f 106/150/113 111/147/113 107/151/113
f 107/151/114 112/45/114 108/46/114
f 9/148/115 76/152/115 1/153/115
f 76/152/116 106/150/116 75/154/116
f 106/150/117 74/155/117 75/154/117
f 107/151/118 73/42/118 74/155/118
f 17/5/119 97/156/119 18/41/119
f 97/156/120 102/157/120 98/158/120
f 102/157/121 99/159/121 98/158/121
f 103/160/122 100/31/122 99/159/122
f 19/40/123 97/156/123 93/161/123
f 97/156/124 94/162/124 93/161/124
f 94/162/125 99/159/125 95/163/125
f 95/163/126 100/31/126 96/29/126
f 20/35/127 93/161/127 89/164/127
f 93/161/128 90/165/128 89/164/128
f 90/165/129 95/163/129 91/166/129
f 91/166/130 96/29/130 92/30/130
f 20/35/131 84/167/131 7/36/131
f 84/167/132 90/165/132 83/168/132
f 90/165/133 82/169/133 83/168/133
f 91/166/134 81/13/134 82/169/134
f 29/118/135 80/170/135 133/171/135
f 80/170/136 134/121/136 133/171/136
f 134/121/137 78/172/137 135/123/137
f 135/123/138 77/16/138 136/18/138
f 25/99/139 84/167/139 149/173/139
f 84/167/140 150/102/140 149/173/140
f 83/168/141 151/104/141 150/102/141
f 151/104/142 81/13/142 152/15/142
f 17/5/143 85/133/143 101/174/143
f 85/133/144 102/157/144 101/174/144
f 86/135/145 103/160/145 102/157/145
f 103/160/146 88/7/146 104/9/146
f 12/137/147 77/175/147 117/176/147
f 77/175/148 118/140/148 117/176/148
f 118/140/149 79/177/149 119/143/149
f 119/143/150 80/1/150 120/3/150
f 80/1/151 4/178/151 13/2/151
f 32/4/152 8/134/152 17/5/152
f 88/7/153 6/79/153 21/8/153
f 40/10/154 2/179/154 12/11/154
f 81/13/155 5/28/155 36/14/155
f 77/16/156 2/180/156 40/17/156
f 33/19/157 44/23/157 9/20/157
f 48/22/158 10/25/158 9/20/158
f 52/24/9 11/26/9 10/25/9
f 52/24/159 56/12/159 12/11/159
f 81/13/160 92/30/160 24/27/160
f 96/29/161 23/32/161 24/27/161
f 100/31/13 22/33/13 23/32/13
f 100/31/162 104/9/162 21/8/162
f 25/34/163 60/38/163 20/35/163
f 64/37/164 19/40/164 20/35/164
f 68/39/17 18/41/17 19/40/17
f 68/39/165 72/6/165 17/5/165
f 73/42/166 108/46/166 16/43/166
f 112/45/167 15/48/167 16/43/167
f 116/47/21 14/49/21 15/48/21
f 116/47/168 120/3/168 13/2/168
f 13/2/169 69/97/169 65/50/169
f 65/50/170 69/97/170 70/51/170
f 70/51/25 71/54/25 67/53/25
f 71/54/171 72/6/171 68/39/171
f 15/48/27 14/49/27 65/50/27
f 65/50/28 66/52/28 62/56/28
f 62/56/29 66/52/29 67/53/29
f 63/57/30 67/53/30 68/39/30
f 16/43/172 15/48/172 61/55/172
f 61/55/173 62/56/173 58/59/173
f 62/56/33 63/57/33 59/60/33
f 59/60/174 63/57/174 64/37/174
f 16/43/175 57/58/175 28/61/175
f 28/61/176 57/58/176 58/59/176
f 27/62/37 58/59/37 59/60/37
f 59/60/177 60/38/177 25/34/177
f 21/8/178 53/94/178 49/64/178
f 49/64/179 53/94/179 54/65/179
f 50/66/41 54/65/41 55/67/41
f 55/67/180 56/12/180 52/24/180
f 23/32/43 22/33/43 49/64/43
f 49/64/44 50/66/44 46/70/44
f 50/66/45 51/68/45 47/71/45
f 47/71/46 51/68/46 52/24/46
f 24/27/181 23/32/181 45/69/181
f 45/69/182 46/70/182 42/73/182
f 42/73/49 46/70/49 47/71/49
f 43/74/183 47/71/183 48/22/183
f 24/27/184 41/72/184 36/75/184
f 36/75/185 41/72/185 42/73/185
f 42/73/53 43/74/53 34/77/53
f 43/74/186 44/23/186 33/19/186
f 88/7/187 124/81/187 37/78/187
f 128/80/188 38/83/188 37/78/188
f 132/82/57 39/84/57 38/83/57
f 132/82/189 136/18/189 40/17/189
f 76/85/190 140/89/190 33/86/190
f 144/88/191 34/91/191 33/86/191
f 148/90/61 35/92/61 34/91/61
f 148/90/192 152/15/192 36/14/192
f 21/8/193 6/79/193 37/93/193
f 37/93/194 38/95/194 54/65/194
f 38/95/65 39/181/65 55/67/65
f 55/67/195 39/181/195 40/10/195
f 13/2/196 4/178/196 29/96/196
f 29/96/197 30/182/197 70/51/197
f 70/51/69 30/182/69 31/98/69
f 71/54/198 31/98/198 32/4/198
f 25/99/199 149/173/199 145/100/199
f 145/100/200 149/173/200 150/102/200
f 146/103/73 150/102/73 151/104/73
f 151/104/201 152/15/201 148/90/201
f 27/106/75 26/101/75 145/100/75
f 145/100/76 146/103/76 142/108/76
f 146/103/77 147/105/77 143/109/77
f 143/109/78 147/105/78 148/90/78
f 28/110/202 27/106/202 141/107/202
f 141/107/203 142/108/203 138/112/203
f 142/108/81 143/109/81 139/113/81
f 139/113/204 143/109/204 144/88/204
f 28/110/205 137/111/205 73/114/205
f 73/114/206 137/111/206 138/112/206
f 74/116/85 138/112/85 139/113/85
f 139/113/207 140/89/207 76/85/207
f 29/118/208 133/171/208 129/119/208
f 129/119/209 133/171/209 134/121/209
f 130/122/89 134/121/89 135/123/89
f 135/123/210 136/18/210 132/82/210
f 31/125/91 30/120/91 129/119/91
f 129/119/92 130/122/92 126/127/92
f 130/122/93 131/124/93 127/128/93
f 127/128/94 131/124/94 132/82/94
f 32/129/211 31/125/211 125/126/211
f 125/126/212 126/127/212 122/131/212
f 122/131/97 126/127/97 127/128/97
f 123/132/213 127/128/213 128/80/213
f 32/129/214 121/130/214 85/133/214
f 85/133/215 121/130/215 122/131/215
f 122/131/101 123/132/101 87/136/101
f 123/132/216 124/81/216 88/7/216
f 12/137/217 117/176/217 113/138/217
f 113/138/218 117/176/218 118/140/218
f 118/140/219 119/143/219 115/142/219
f 119/143/220 120/3/220 116/47/220
f 10/144/107 11/139/107 113/138/107
f 113/138/108 114/141/108 110/146/108
f 114/141/109 115/142/109 111/147/109
f 111/147/110 115/142/110 116/47/110
f 9/148/221 10/144/221 109/145/221
f 109/145/222 110/146/222 106/150/222
f 106/150/223 110/146/223 111/147/223
f 107/151/224 111/147/224 112/45/224
f 9/148/225 105/149/225 76/152/225
f 76/152/226 105/149/226 106/150/226
f 106/150/117 107/151/117 74/155/117
f 107/151/227 108/46/227 73/42/227
f 17/5/228 101/174/228 97/156/228
f 97/156/229 101/174/229 102/157/229
f 102/157/230 103/160/230 99/159/230
f 103/160/231 104/9/231 100/31/231
f 19/40/123 18/41/123 97/156/123
f 97/156/124 98/158/124 94/162/124
f 94/162/125 98/158/125 99/159/125
f 95/163/126 99/159/126 100/31/126
f 20/35/232 19/40/232 93/161/232
f 93/161/233 94/162/233 90/165/233
f 90/165/234 94/162/234 95/163/234
f 91/166/235 95/163/235 96/29/235
f 20/35/236 89/164/236 84/167/236
f 84/167/237 89/164/237 90/165/237
f 90/165/133 91/166/133 82/169/133
f 91/166/238 92/30/238 81/13/238
f 29/118/239 4/183/239 80/170/239
f 80/170/240 79/184/240 134/121/240
f 134/121/137 79/184/137 78/172/137
f 135/123/241 78/172/241 77/16/241
f 25/99/242 7/36/242 84/167/242
f 84/167/243 83/168/243 150/102/243
f 83/168/141 82/169/141 151/104/141
f 151/104/244 82/169/244 81/13/244
f 17/5/245 8/134/245 85/133/245
f 85/133/246 86/135/246 102/157/246
f 86/135/247 87/136/247 103/160/247
f 103/160/248 87/136/248 88/7/248
f 12/137/249 2/185/249 77/175/249
f 77/175/250 78/186/250 118/140/250
f 118/140/251 78/186/251 79/177/251
f 119/143/252 79/177/252 80/1/252
